{"title":"10 Years LIMITED BDRip XviD-SAPHiRE [MyTV]","uid":7867864,"size":733879449,"categoryP":"video","categoryS":"movies","magnet":"?xt=urn:btih:dcaf573d211a5d9ed3a1650f8b0265baf39afbf8&amp;dn=10+Years+LIMITED+BDRip+XviD-SAPHiRE+%5BMyTV%5D&amp;tr=udp%3A%2F%2Ftracker.openbittorrent.com%3A80&amp;tr=udp%3A%2F%2Fopen.demonii.com%3A1337&amp;tr=udp%3A%2F%2Ftracker.coppersurfer.tk%3A6969&amp;tr=udp%3A%2F%2Fexodus.desync.com%3A6969","seeders":1,"leechers":0,"uploader":"TorrentXXLS","files":4,"time":1354110373,"description":"10 Years LIMITED BDRip XviD-SAPHiRE [MyTV]\n\nScreenshots:\n &lt;a href=&quot;\nhttp://imageshack.us/a/img401/5813/vlcsnap2012112813h41m03.png&quot; rel=&quot;nofollow&quot; target=&quot;_NEW&quot;&gt;\nhttp://imageshack.us/a/img401/5813/vlcsnap2012112813h41m03.png&lt;/a&gt;\n &lt;a href=&quot;\nhttp://imageshack.us/a/img96/291/vlcsnap2012112813h41m09.png&quot; rel=&quot;nofollow&quot; target=&quot;_NEW&quot;&gt;\nhttp://imageshack.us/a/img96/291/vlcsnap2012112813h41m09.png&lt;/a&gt;\n &lt;a href=&quot;\nhttp://imageshack.us/a/img152/4377/vlcsnap2012112813h41m13.png&quot; rel=&quot;nofollow&quot; target=&quot;_NEW&quot;&gt;\nhttp://imageshack.us/a/img152/4377/vlcsnap2012112813h41m13.png&lt;/a&gt;\n\nNFO:\n &lt;a href=&quot;\nhttp://www.imdb.com/title/tt1715873/&quot; rel=&quot;nofollow&quot; target=&quot;_NEW&quot;&gt;\nhttp://www.imdb.com/title/tt1715873/&lt;/a&gt;\n\nFormat : AVI\nFormat/Info : Audio Video Interleave\nFile size : 700 MiB\nDuration : 1h 40mn\nOverall bit rate mode : Variable\nOverall bit rate : 972 Kbps\nWriting application : Nandub v1.0rc3\nWriting library : Nandub build 2079/release\n\nVideo\nID : 0\nFormat : MPEG-4 Visual\nFormat profile : Advanced Simple@L5\nFormat settings, BVOP : 2\nFormat settings, QPel : No\nFormat settings, GMC : No warppoints\nFormat settings, Matrix : Default (H.263)\nMuxing mode : Packed bitstream\nCodec ID : XVID\nCodec ID/Hint : XviD\nDuration : 1h 40mn\nBit rate : 824 Kbps\nWidth : 624 pixels\nHeight : 352 pixels\nDisplay aspect ratio : 16:9\nFrame rate : 23.976 fps\nColor space : YUV\nChroma subsampling : 4:2:0\nBit depth : 8 bits\nScan type : Progressive\nCompression mode : Lossy\nBits/(Pixel*Frame) : 0.156\nStream size : 594 MiB (85%)\nWriting library : XviD 57\n\nAudio\nID : 1\nFormat : MPEG Audio\nFormat version : Version 1\nFormat profile : Layer 3\nMode : Joint stereo\nMode extension : MS Stereo\nCodec ID : 55\nCodec ID/Hint : MP3\nDuration : 1h 40mn\nBit rate mode : Variable\nBit rate : 135 Kbps\nMinimum bit rate : 128 Kbps\nChannel(s) : 2 channels\nSampling rate : 48.0 KHz\nCompression mode : Lossy\nStream size : 97.0 MiB (14%)\nAlignment : Aligned on interleaves\nInterleave, duration : 24 ms (0.58 video frame)\nInterleave, preload duration : 131 ms\nWriting library : LAME3.99r\nEncoding settings : -m j -V 4 -q 0 -lowpass 17.5 --vbr-new -b 128","torrent":{"xt":"urn:btih:dcaf573d211a5d9ed3a1650f8b0265baf39afbf8","amp;dn":"10+Years+LIMITED+BDRip+XviD-SAPHiRE+%5BMyTV%5D","amp;tr":["udp%3A%2F%2Ftracker.openbittorrent.com%3A80","udp%3A%2F%2Fopen.demonii.com%3A1337","udp%3A%2F%2Ftracker.coppersurfer.tk%3A6969","udp%3A%2F%2Fexodus.desync.com%3A6969"],"infoHash":"dcaf573d211a5d9ed3a1650f8b0265baf39afbf8","infoHashBuffer":{"type":"Buffer","data":[220,175,87,61,33,26,93,158,211,161,101,15,139,2,101,186,243,154,251,248]},"announce":[],"urlList":[]}}